<svg width="12" height="6" viewBox="0 0 12 6" fill="none" xmlns="http://www.w3.org/2000/svg">
<path d="M11.3531 0.0449737C11.0962 0.132044 10.856 0.287365 10.6324 0.510936C10.4777 0.665717 10.1357 1.02889 9.60662 1.60044C9.21535 2.02155 8.8495 2.47001 8.50818 2.8884C7.67944 3.90426 6.99535 4.74282 6.44342 4.58191C6.43998 4.57883 6.43661 4.57565 6.43334 4.57237C6.27856 4.41759 5.91539 4.07565 5.34383 3.54655C3.84615 2.155 2.73596 1.23585 2.01326 0.789096C1.50499 0.47187 1.18717 0.376938 1.05981 0.504301C0.932447 0.631663 0.906994 0.829094 0.98345 1.09659C1.07052 1.35348 1.22584 1.59371 1.44941 1.81728C1.60419 1.97206 1.96736 2.314 2.53892 2.84311C4.0366 4.23465 5.1468 5.1538 5.8695 5.60055C6.20864 5.81222 6.46298 5.92492 6.63254 5.93865C6.75675 6.01556 6.92615 6.01764 7.14074 5.94491C7.40824 5.86845 7.65378 5.71843 7.87735 5.49486C8.03213 5.34008 8.37407 4.97691 8.90318 4.40536C10.2947 2.90767 11.2139 1.79748 11.6606 1.07478C11.9779 0.56651 12.0728 0.248694 11.9454 0.121332C11.8181 -0.00603002 11.6206 -0.0314828 11.3531 0.0449737Z" fill="#768692"/>
</svg>
