<svg width="22" height="23" viewBox="0 0 29 32" fill="none" xmlns="http://www.w3.org/2000/svg">
<path fill-rule="evenodd" clip-rule="evenodd" d="M18.4699 20.3714C18.3999 19.3714 18.3799 18.3314 18.1499 17.4814C19.3999 16.1114 20.3099 14.4014 20.8799 12.3514C23.0699 12.3214 23.4899 9.94139 23.1299 7.86139C22.9599 7.49139 21.9899 7.94139 21.8499 7.54139C21.6399 4.08139 20.8299 1.15139 18.3199 0.321393C13.5499 -1.23861 10.2699 3.17139 9.81987 7.54139C7.93987 7.62139 7.75987 10.4414 8.37987 12.0314C8.65987 12.4514 9.65987 12.1414 9.81987 12.6714C9.98987 15.2814 12.0199 16.5314 11.2599 19.5714C6.69987 21.7614 -0.0701332 22.5614 0.989867 29.8314C1.37987 30.1414 1.83987 30.4814 2.42987 30.1514C2.28987 30.8214 2.85987 30.7814 3.06987 31.1114C11.8699 31.0914 20.5399 30.9414 28.2499 29.8314C31.3099 23.2314 24.3399 20.4514 18.4699 20.3714ZM21.6799 8.98139C22.1299 8.85139 22.0999 9.21139 22.4799 9.14139C22.4799 9.89139 22.2899 10.4414 21.5199 10.4214C21.4299 9.80139 21.8099 9.64139 21.6799 8.98139ZM9.48987 10.4214C9.19987 10.4414 9.14987 10.2214 8.84987 10.2614C8.82987 9.97139 9.04987 9.92139 9.00987 9.62139C9.33987 9.55139 9.42987 9.73139 9.64987 9.78139C9.52987 9.92139 9.47987 10.1414 9.48987 10.4214ZM26.8099 28.2214C19.1399 28.9414 11.0299 29.2314 2.90987 29.5014C2.61987 28.0714 2.71987 26.7814 3.06987 25.9714C3.30987 25.4114 4.16987 24.3614 4.82987 23.8914C7.07987 22.2814 12.0299 22.3014 12.6899 19.2414C12.8999 18.2814 12.7899 16.7014 12.5299 15.3914C12.3199 14.3014 11.5599 13.2714 11.4099 12.0214C10.8399 7.41139 12.2799 2.04139 16.3799 1.92139C21.1999 1.77139 19.7799 10.1514 18.4699 13.1514C17.3299 15.7614 16.0099 17.6914 16.7099 21.4914C17.2999 22.7914 18.9699 22.2814 20.2399 22.4514C22.9299 22.8314 26.3599 23.9214 26.8199 26.1414C26.9499 26.7614 26.7299 27.4014 26.8199 28.2214H26.8099Z" fill="#768692"/>
</svg>
