<svg width="19" height="14" viewBox="0 0 19 14" fill="none" xmlns="http://www.w3.org/2000/svg">
<path d="M18.7281 8.41865C18.6988 7.64025 17.9146 7.75145 17.7507 7.16033C17.7156 5.96054 17.8443 5.35187 17.7507 4.36862C16.867 3.29759 15.8603 2.34946 15.0995 1.15552C13.3378 1.20819 11.3655 1.05017 10.353 1.85198L10.4056 1.86954C10.3764 1.96318 10.353 2.04512 10.3413 2.13291C10.1598 2.13291 10.0428 2.19729 9.93742 2.26752C9.6682 3.0986 10.4876 4.16378 9.79695 4.50323C9.16487 4.45056 9.30533 3.4439 9.24095 2.82937C9.15902 2.05682 9.28777 1.18478 9.10049 0.593663C6.21513 0.558547 3.34148 0.283472 0.854109 0.880443C0.198612 2.7767 0.982867 5.44551 0.713645 7.86265C0.579034 8.2899 -0.117431 8.14358 0.0171798 8.84004C0.0757063 9.75891 0.479539 10.3325 0.994572 10.7948C1.6091 10.7597 2.07731 10.5724 2.80889 10.6544C2.55723 13.2061 4.68174 13.8206 6.29707 12.8901C7.19253 12.375 7.30373 11.2396 7.97093 10.7948C9.19413 10.9938 9.83207 10.6075 10.3471 10.0984C10.4993 10.6427 11.3596 10.4788 11.7459 10.7948C11.6347 14.2537 15.6672 12.4804 16.2115 10.7948C16.9957 10.8768 17.2298 10.7304 17.7449 10.9353C17.9204 10.3383 17.7331 10.2447 17.7449 9.54236C18.5057 9.39605 18.7457 8.99221 18.7222 8.42451L18.7281 8.41865ZM4.76368 11.6318C4.06136 10.8299 4.76368 9.53066 5.88153 9.67697C6.53118 10.4203 6.07467 11.9712 4.76368 11.6318ZM8.25186 9.67697C7.71926 9.64771 7.76609 9.04489 7.55539 8.69958C6.67749 8.3016 5.87568 7.78071 4.90414 8.00312C3.96186 8.21381 3.88578 9.33752 3.08982 9.53651C2.53967 9.6243 2.92595 8.76981 2.80889 8.41865C2.62746 8.22552 2.20022 8.27819 1.8315 8.27819C1.53302 6.26488 1.88417 4.04087 1.55057 1.85198C3.85652 1.57105 6.05126 1.09699 8.39232 1.57106C8.58546 4.49153 8.60887 6.91452 9.08878 9.67112H8.25186V9.67697ZM13.8353 11.3508C12.8637 11.2982 12.8579 9.48384 14.2567 9.53651C15.1053 10.2213 14.6078 11.3977 13.8353 11.3508ZM16.7675 9.67697C15.3336 9.54236 15.9305 8.24307 14.8127 8.00312C13.133 7.64025 12.8345 9.40775 11.4591 9.9579C11.0319 7.58758 11.2426 4.56761 10.6397 2.2324C10.6397 2.2324 10.6397 2.2324 10.6397 2.2207C10.6456 2.15047 10.6749 2.06853 10.7041 1.98074C10.7041 1.98074 10.7041 1.98074 10.7041 1.96904C10.9967 2.01 11.8278 2.03927 14.245 1.85783C15.2399 2.86449 16.2641 3.84188 17.0367 5.07094C16.785 6.44631 17.0659 8.35427 16.7558 9.67697H16.7675ZM11.184 2.97569V3.25662C11.3069 4.34521 11.2191 5.6445 11.8805 6.18879C12.7877 6.11856 15.3745 6.5224 16.071 5.7674C15.7257 4.39203 14.9005 3.49658 13.8353 2.83523C12.7525 2.86449 11.7693 2.77085 11.184 2.97569Z" fill="#768692"/>
</svg>
