<svg width="51" height="50" viewBox="0 0 51 50" fill="none" xmlns="http://www.w3.org/2000/svg">
<path d="M23.949 3.0957C20.7553 3.2582 17.8855 3.87591 15.2313 5.71758C8.3532 10.4905 4.72716 18.6301 4.16362 26.804C4.02925 28.7478 4.0605 30.7363 4.65529 32.5915C5.36883 34.8176 6.85216 36.7197 8.50321 38.3738C11.5501 41.427 15.3157 43.8249 19.4845 44.9332C24.8772 46.3665 31.622 46.4582 36.2918 43.403C41.6157 39.9186 45.8511 34.2113 47.4324 28.0478C48.2751 24.7634 47.1386 18.2582 45.6313 15.2207C43.5272 10.9801 41.774 8.91237 37.9032 6.72174C33.6553 4.31862 28.7626 3.42904 23.949 3.0957Z" fill="#ECF3F3"/>
<path d="M29.2115 45.4258C28.8771 44.4685 29.0583 43.0383 29.0292 42.0153C28.9938 40.7841 28.975 39.5518 28.9729 38.3195C28.9698 36.8091 28.9917 35.2997 29.0375 33.7903C29.0604 33.0362 29.1042 32.282 29.126 31.5278C29.1427 30.9456 29.0771 30.7174 29.7177 30.6914C31.0375 30.6383 32.3677 30.6185 33.6958 30.6122C33.7615 30.6122 33.8313 30.6101 33.8833 30.5716C33.9438 30.5268 33.9646 30.4466 33.9781 30.3726C34.0865 29.7851 34.0448 29.182 34.051 28.5851C34.0635 27.2893 34.3062 25.9966 34.7625 24.7851C33.2792 24.6737 31.7875 24.6758 30.3042 24.7893C29.9719 24.8143 29.5781 24.9195 29.2479 24.8903C28.825 24.8528 28.8448 24.882 28.751 24.4351C28.6031 23.7331 28.6167 22.9601 28.5896 22.2456C28.5562 21.3664 28.6625 20.4456 29.1396 19.7049C29.5854 19.0133 30.3167 18.5445 31.0906 18.2664C32.2417 17.8518 33.5365 17.6872 34.7469 17.7029C34.7781 16.8049 34.8156 15.9081 34.8604 15.0112C34.8906 14.4028 35.226 13.2956 34.6385 12.9185C34.3448 12.7299 33.8802 12.656 33.5437 12.5747C32.7656 12.3883 31.9625 12.3153 31.1635 12.3299C29.574 12.3591 27.9979 12.731 26.5188 13.3049C25.4885 13.7039 24.4542 14.2278 23.7958 15.1153C23.3198 15.757 23.0781 16.5403 22.8917 17.3174C22.5885 18.5789 22.4094 19.8695 22.3552 21.1653C22.3281 21.8133 22.3323 22.4622 22.3677 23.1101C22.3906 23.5268 22.6583 24.3966 22.2625 24.7122C21.9698 24.9466 21.0396 24.882 20.6687 24.9174C19.4604 25.0351 18.2458 25.1008 17.0312 25.1122C17.2667 27.0403 17.5021 28.9674 17.7375 30.8956C18.6969 30.9456 19.6573 30.982 20.6177 31.006C21.1104 31.0185 21.8885 30.8445 22.2021 31.3039C22.6427 31.9466 22.2448 33.1831 22.2302 33.9028C22.2063 35.1622 22.1917 36.4206 22.201 37.6799C22.2198 40.1549 22.2583 43.1226 22.574 45.5779" fill="#DDE6E8"/>
<path d="M22.5762 46.0976C22.3189 46.0976 22.0939 45.906 22.0606 45.6424C21.7491 43.2216 21.7033 40.382 21.6835 37.682C21.6731 36.4185 21.6887 35.1539 21.7116 33.8893C21.7168 33.6612 21.7543 33.3862 21.797 33.0924C21.8699 32.583 21.972 31.8841 21.7752 31.5945C21.6929 31.4778 21.2616 31.4997 21.0043 31.5122C20.8637 31.5195 20.7314 31.5237 20.6064 31.5237C19.6418 31.5008 18.6762 31.4633 17.7127 31.4133C17.4606 31.3997 17.2543 31.208 17.2231 30.957L16.5168 25.1737C16.4981 25.0258 16.5439 24.8789 16.6418 24.7664C16.7397 24.656 16.8804 24.5903 17.0283 24.5893C18.2199 24.5778 19.4283 24.5143 20.6189 24.3966C20.7272 24.3862 20.8793 24.382 21.0502 24.3789C21.2804 24.3747 21.8168 24.3643 21.9543 24.2914C21.9981 24.1997 21.9283 23.7362 21.897 23.5383C21.8741 23.3862 21.8543 23.2466 21.8481 23.1351C21.8116 22.4726 21.8074 21.8018 21.8345 21.1393C21.8908 19.8143 22.0752 18.4851 22.3845 17.1924C22.571 16.4205 22.8335 15.5341 23.3772 14.8008C24.1533 13.7549 25.3627 13.1903 26.3304 12.8153C27.9866 12.1737 29.6085 11.8341 31.1533 11.8049C32.0304 11.7924 32.8772 11.8768 33.6647 12.0653L33.8522 12.108C34.1856 12.181 34.6012 12.2726 34.9189 12.4768C35.6554 12.9497 35.5179 13.9497 35.4272 14.6112C35.4054 14.7664 35.3845 14.9122 35.3783 15.0351C35.3356 15.9289 35.2981 16.8237 35.2668 17.7185C35.2564 17.9997 35.0262 18.2205 34.746 18.2205C34.6949 18.2216 34.6408 18.2195 34.5897 18.2195C33.3835 18.2195 32.2377 18.4039 31.2679 18.7539C30.7345 18.9455 30.0085 19.3143 29.5772 19.9841C29.2262 20.5299 29.0741 21.2622 29.1106 22.2216L29.1241 22.6799C29.1387 23.2372 29.1533 23.8133 29.2616 24.3226C29.2647 24.3372 29.2679 24.3508 29.2699 24.3633C29.471 24.3737 29.6658 24.3466 29.8522 24.3185C29.9939 24.2966 30.1345 24.2758 30.2647 24.2653C31.7741 24.1508 33.3012 24.1487 34.8022 24.2612C34.9647 24.2747 35.1137 24.3633 35.2022 24.5008C35.2897 24.6393 35.3085 24.8112 35.2502 24.9643C34.8127 26.1247 34.5835 27.3424 34.572 28.5851L34.5731 29.0101C34.5772 29.481 34.5824 29.9674 34.4918 30.4622C34.471 30.5633 34.4231 30.8153 34.196 30.9841C33.9991 31.1289 33.7866 31.1289 33.697 31.1289C32.1647 31.1362 30.9064 31.1612 29.7397 31.208C29.7054 31.2091 29.6772 31.2112 29.6543 31.2133C29.6522 31.2633 29.6512 31.3216 29.6502 31.3716L29.646 31.5414C29.6345 31.9476 29.6179 32.3539 29.5991 32.7601C29.5835 33.1091 29.5689 33.457 29.5585 33.806C29.5116 35.2924 29.4908 36.8112 29.4929 38.3185C29.4949 39.5466 29.5147 40.7726 29.5502 41.9987C29.5585 42.2976 29.5491 42.6299 29.5397 42.9758C29.5179 43.7643 29.4939 44.657 29.7022 45.2539C29.7981 45.5258 29.6543 45.8226 29.3824 45.9174C29.1106 46.0143 28.8127 45.8695 28.7189 45.5976C28.447 44.8216 28.4741 43.8258 28.4981 42.9476C28.5064 42.6226 28.5158 42.3112 28.5074 42.0289C28.472 40.7935 28.4522 39.557 28.4502 38.3205C28.447 36.8018 28.4699 35.2716 28.5158 33.7737C28.5272 33.4205 28.5418 33.0674 28.5574 32.7143C28.5752 32.3143 28.5929 31.9133 28.6033 31.5133L28.6064 31.3612C28.6137 30.9049 28.6241 30.2133 29.696 30.1705C30.8241 30.1258 32.0356 30.1008 33.4939 30.0924C33.5377 29.7445 33.5335 29.3924 33.5304 29.0247L33.5293 28.5799C33.5408 27.4487 33.7158 26.3362 34.0481 25.2612C32.8189 25.1987 31.5762 25.2153 30.3429 25.308C30.2356 25.3174 30.122 25.3341 30.0064 25.3518C29.7585 25.3903 29.4752 25.432 29.2002 25.408C28.5179 25.3497 28.3668 25.1414 28.2501 24.581C28.1147 23.9403 28.0981 23.3153 28.0824 22.7112L28.0689 22.2653C28.0241 21.083 28.2314 20.1539 28.7022 19.4226C29.2908 18.508 30.2304 18.0216 30.9147 17.7758C31.9022 17.4195 33.0449 17.2185 34.2439 17.1862C34.271 16.4528 34.3033 15.7195 34.3397 14.9862C34.347 14.8362 34.3699 14.6601 34.396 14.4716C34.4408 14.1466 34.5335 13.4695 34.3574 13.357C34.197 13.2528 33.8824 13.1841 33.6293 13.1289L33.4241 13.082C32.721 12.9133 31.9689 12.8372 31.1741 12.8497C29.7533 12.8758 28.2502 13.1924 26.7085 13.7883C25.872 14.1133 24.8324 14.5924 24.2147 15.4237C23.7835 16.0049 23.5679 16.7351 23.3991 17.4383C23.1054 18.6653 22.9293 19.9268 22.8772 21.1862C22.8502 21.8153 22.8543 22.4528 22.8887 23.081C22.8939 23.1643 22.9106 23.2695 22.9283 23.3841C23.0064 23.9028 23.1262 24.6872 22.5897 25.1185C22.2616 25.3799 21.7304 25.4101 21.0699 25.4226C20.9314 25.4258 20.8095 25.4268 20.721 25.4362C19.6929 25.5362 18.6533 25.5987 17.6199 25.6237L18.2033 30.3966C19.0116 30.4351 19.822 30.4643 20.6314 30.4841C20.7314 30.4883 20.8366 30.481 20.9512 30.4747C21.4554 30.4466 22.2241 30.4091 22.6345 31.0091C23.0606 31.633 22.9314 32.5258 22.8283 33.2445C22.7929 33.4903 22.7585 33.7205 22.7543 33.9122C22.7314 35.1664 22.7158 36.4205 22.7262 37.6758C22.746 40.3445 22.7908 43.1476 23.0949 45.5112C23.1314 45.7955 22.9304 46.057 22.6439 46.0945C22.621 46.0966 22.5991 46.0976 22.5762 46.0976Z" fill="#010101"/>
<path d="M26.652 46.4823C24.3103 46.4823 21.8322 46.1562 19.3343 45.4927C15.2874 44.4156 11.401 42.0968 8.09366 38.7823C6.02074 36.7031 4.75303 34.7927 4.10408 32.7677C3.42491 30.6489 3.47074 28.4468 3.58741 26.7656C4.21762 17.6406 8.34158 9.7958 14.903 5.24371C17.3395 3.55309 20.1207 2.71246 23.9218 2.51871C23.9457 2.51663 23.9676 2.51767 23.9905 2.51976C29.9457 2.9333 34.4572 4.1083 38.1874 6.21871C42.0468 8.40205 43.9062 10.4448 46.1489 14.9635C47.7124 18.1156 48.8832 24.7198 47.9916 28.1916C46.3989 34.3958 42.1437 40.2646 36.6072 43.8864C33.9864 45.6021 30.4989 46.4823 26.652 46.4823ZM23.9437 3.67496C20.3895 3.86038 17.802 4.63746 15.5603 6.19267C9.28949 10.5437 5.3447 18.0718 4.73949 26.8437C4.57699 29.1895 4.72074 30.9073 5.20408 32.4145C5.7947 34.2573 6.97283 36.0218 8.91033 37.9646C12.0728 41.1354 15.7812 43.351 19.6312 44.375C25.9155 46.0458 32.0259 45.501 35.9739 42.9198C41.2739 39.45 45.3478 33.8375 46.8707 27.9041C47.6801 24.752 46.5791 18.4364 45.1114 15.476C42.9905 11.202 41.2395 9.27288 37.6166 7.22392C34.0489 5.20517 29.7041 4.07705 23.9437 3.67496Z" fill="#010101"/>
</svg>
