<svg width="22" height="18" viewBox="0 0 22 18" fill="none" xmlns="http://www.w3.org/2000/svg">
<path fill-rule="evenodd" clip-rule="evenodd" d="M21.3246 3.24968C20.327 -0.352437 14.552 -0.794939 11.7074 1.62717C11.0372 2.19389 10.7956 2.88481 10.211 3.74652C9.54859 1.90665 8.32501 0.64125 6.21296 0.509276C2.99424 0.315196 0.913371 2.44231 0.57825 4.98863C-0.115373 10.3685 3.95284 12.9459 6.82865 14.9488C8.34059 16.0046 9.99282 17.3787 11.4502 17.0681C11.9568 16.7576 11.0372 16.1676 11.3255 16.0745C13.3518 15.1118 15.2612 13.9629 16.9524 12.4646C18.5033 11.0905 20.327 9.26615 21.0752 7.3564C21.4805 6.3239 21.6597 4.45297 21.3246 3.24968ZM19.6957 7.23219C18.9787 8.81588 17.1317 10.6092 15.573 11.96C13.8662 13.4505 11.8555 14.6538 10.4448 15.6941C7.31185 13.567 1.31863 10.8188 1.83301 5.36127C2.00446 3.53692 3.89829 1.30112 6.70396 1.8756C8.32501 2.20941 8.75365 3.86297 9.57976 5.23706C9.82136 5.80377 10.3201 4.98087 10.3279 5.48548C10.5617 5.75719 10.6942 6.1143 11.3255 5.98232C12.0113 5.65627 11.4346 5.03521 11.4502 4.36758C12.5023 0.850856 20.0698 0.136643 20.2023 4.86442C20.2257 5.57087 19.9919 6.59561 19.7035 7.23219H19.6957Z" fill="#768692"/>
</svg>
