<svg width="51" height="50" viewBox="0 0 51 50" fill="none" xmlns="http://www.w3.org/2000/svg">
<path d="M19.6375 46.6192C16.751 46.6192 14.4708 46.6661 12.6187 45.813C11.3447 45.2276 10.3312 44.5494 9.28537 43.764C8.46037 43.1421 6.96662 41.9151 6.13329 40.5578C5.63016 39.7369 5.47183 38.8692 5.24579 38.1098C3.68433 32.8546 4.35308 27.2338 3.91037 22.0588C3.71245 19.7494 4.0812 17.4046 4.31454 15.1151C4.36141 14.6421 4.41766 14.1588 4.49891 13.6807C4.75308 12.2067 5.23746 10.8734 5.9385 9.7161C6.40621 8.9463 6.99266 8.21818 7.68121 7.55255C8.70933 6.56193 9.90308 5.76193 11.2312 5.17235C13.477 4.17547 15.7135 3.9286 17.9968 3.74526L21.9895 3.43276C24.4562 3.23381 27.0427 3.02443 29.6593 3.11922C31.9062 3.19943 34.0937 3.35881 36.1218 3.51922C37.0145 3.58901 38.1281 3.67651 39.3187 4.0786C41.1895 4.71193 42.8864 6.03172 44.0958 7.79631C44.9812 9.08797 45.9135 10.363 46.3458 12.1828C46.8791 14.4244 46.6635 16.8171 46.7291 18.7192C46.7479 19.2901 46.7687 19.8578 46.7958 20.4223C46.8625 21.7494 46.9218 23.0744 46.9614 24.3994C47.0562 27.5609 47.0208 30.1953 46.851 32.6901C46.6468 35.7234 46.7572 39.6348 44.2437 42.3119C40.7854 45.988 35.1552 46.8859 31.6875 46.9307L31.325 46.9328C31.325 46.9328 30.6322 46.9276 30.2916 46.9213L29.3968 46.9109C27.9989 46.9151 26.5958 46.514 25.1458 46.6453C23.9052 46.7588 22.8031 46.514 21.6885 46.5651C21.0375 46.5963 20.3458 46.6192 19.6375 46.6192ZM28.3 6.7786C26.2729 6.7786 24.2281 6.94422 22.25 7.10464L18.2541 7.41714C16.2802 7.57547 14.5395 7.84318 12.7864 8.6213C11.825 9.04735 11.0583 9.53693 10.3218 10.2463C9.84579 10.7057 9.45829 11.2161 9.14266 11.7348C8.66454 12.5234 8.31766 13.1307 8.1385 14.1776C8.07079 14.5734 8.026 14.9755 7.98537 15.3744C7.76245 17.5703 7.63121 19.8067 7.59891 22.0244C7.52808 26.9401 7.66037 32.1536 9.08954 36.9651C9.24475 37.4838 9.49058 37.8692 9.801 38.3776C10.2958 39.1828 11.0479 39.7494 11.7114 40.2494C12.6395 40.9463 13.4843 41.5578 14.4541 42.0015C15.8416 42.6411 17.3697 42.7151 19.7427 42.7151C20.3958 42.7151 21.0343 42.6942 21.6343 42.6661C22.726 42.6161 23.8145 42.5171 24.9041 42.4182C26.4614 42.2786 27.9041 42.1484 29.4552 42.1432C29.725 42.1432 29.9895 42.1473 30.2541 42.1515L30.4062 42.1536C30.7354 42.1588 31.0572 42.1651 31.3781 42.1651L31.7187 42.163C34.551 42.1276 38.277 41.9401 40.8395 39.2161C42.6135 37.3276 42.8364 34.9078 43 32.4796C43.1614 30.0973 43.1958 27.5692 43.1052 24.5213C43.0656 23.2192 43.0072 21.9182 42.9427 20.6151C42.9125 20.0296 42.8927 19.4432 42.8739 18.8536C42.8135 17.1151 42.8198 15.2359 42.3656 13.3286C42.0312 11.9255 41.4437 10.9963 40.7989 10.0578C40.0062 8.90151 39.3458 8.05776 38.1739 7.66089C37.3885 7.39526 36.5947 7.31714 35.8166 7.25568C33.826 7.09839 31.7083 6.87547 29.5229 6.79735C29.1135 6.78485 28.7062 6.7786 28.3 6.7786Z" fill="#ECF3F3"/>
<path d="M19.6301 43.1391C17.6707 43.1391 15.7478 42.9443 14.1478 42.2079C13.1749 41.76 12.3353 41.1516 11.4155 40.46C10.7541 39.961 10.0051 39.3964 9.51657 38.6016C9.20511 38.0933 9.02282 37.5256 8.87699 37.0329C7.4499 32.2297 7.31865 27.0214 7.38949 22.1089C7.42178 19.8933 7.55199 17.66 7.77491 15.4672C7.81553 15.0652 7.85928 14.6641 7.92699 14.2662C8.1072 13.2256 8.43845 12.3016 8.91241 11.5204C9.22386 11.0058 9.62282 10.5131 10.0989 10.0548C10.8291 9.34954 11.6843 8.77663 12.6416 8.35163C14.3822 7.57871 16.2989 7.37246 18.2728 7.21308L22.2634 6.90058C24.6384 6.70788 27.0978 6.50788 29.5332 6.59538C31.7072 6.6735 33.852 6.82975 35.8478 6.98704C36.6218 7.04746 37.4228 7.10996 38.2041 7.37454C39.3645 7.76725 40.4385 8.61413 41.2239 9.76204C41.8635 10.6954 42.3364 11.8277 42.6697 13.2245C43.1249 15.137 43.1916 17.1027 43.2509 18.837L43.2562 19.0016C43.2749 19.5339 43.2926 20.0662 43.3197 20.5975C43.3864 21.8985 43.4447 23.1995 43.4832 24.5016C43.5728 27.5652 43.5405 30.0912 43.3791 32.4527C43.2155 34.8725 42.8103 37.5995 41.0457 39.4777C38.4989 42.1881 34.4353 42.5485 31.602 42.585C31.1801 42.5891 30.7551 42.5829 30.3322 42.5756C29.9812 42.5704 29.6416 42.5641 29.2759 42.5652C27.778 42.5704 26.253 42.7079 24.777 42.8423C23.7145 42.9381 22.6176 43.0381 21.5291 43.087C20.8989 43.1193 20.2634 43.1391 19.6301 43.1391ZM28.3218 7.61725C26.3249 7.61725 24.3093 7.78079 22.3499 7.94017L18.3582 8.25163C16.4051 8.40892 14.6582 8.59642 13.0666 9.30475C12.2207 9.67975 11.4666 10.185 10.8239 10.8048C10.4124 11.2016 10.0697 11.6235 9.80511 12.06C9.39782 12.7308 9.11241 13.5318 8.95616 14.4423C8.89157 14.8162 8.84991 15.1943 8.81136 15.5735C8.59157 17.735 8.46449 19.9381 8.4322 22.1245C8.3624 26.9548 8.48845 32.0672 9.87699 36.736C10.0103 37.185 10.1603 37.6568 10.4062 38.0579C10.7905 38.685 11.427 39.1652 12.0437 39.6287C12.9145 40.2829 13.7062 40.8589 14.5843 41.262C16.4989 42.1433 19.0312 42.1579 21.4822 42.0495C22.5468 41.9995 23.6332 41.9006 24.6843 41.8068C26.1822 41.6714 27.7312 41.5308 29.2728 41.5256C29.6353 41.5245 29.9905 41.5308 30.3499 41.536C30.7634 41.5433 31.177 41.5506 31.5884 41.5454C34.4562 41.5089 38.0364 41.16 40.2874 38.7652C41.828 37.1277 42.1895 34.6204 42.3405 32.3829C42.4989 30.0579 42.5322 27.5631 42.4426 24.5339C42.4041 23.2402 42.3457 21.9454 42.2812 20.6516C42.2541 20.1141 42.2353 19.5756 42.2166 19.0381L42.2103 18.8735C42.153 17.1891 42.0885 15.2777 41.6582 13.4673C41.3551 12.1964 40.9332 11.1787 40.3676 10.3537C39.7072 9.39017 38.8218 8.68288 37.8718 8.36308C37.2124 8.14017 36.478 8.08183 35.7676 8.02663C33.7843 7.87142 31.652 7.71621 29.4978 7.63913C29.1072 7.6235 28.7145 7.61725 28.3218 7.61725Z" fill="#010101"/>
<path d="M27.752 47.4422C26.7135 47.4422 25.676 47.4183 24.6416 47.3672C23.702 47.3224 22.7541 47.2214 21.8395 47.1235C20.9156 47.0245 19.9593 46.9224 19.0281 46.8818L17.9916 46.8401C16.4499 46.7829 14.8551 46.7245 13.2843 46.4662C12.2906 46.3037 11.2426 46.0776 10.3229 45.5245C9.65723 45.1235 9.12286 44.5933 8.60515 44.0808L6.64161 42.1349C6.15932 41.6579 5.66244 41.1641 5.28848 40.5474C4.84994 39.8193 4.64161 39.0068 4.49577 38.3089C3.97911 35.8433 3.94994 33.3235 3.99577 30.9672C4.0239 29.5131 3.89786 28.036 3.77598 26.6058C3.70411 25.7599 3.63119 24.9131 3.58744 24.061C3.48015 21.9349 3.41661 19.7756 3.39786 17.6454C3.37598 15.0714 3.45307 12.3641 4.63119 10.0276C5.72702 7.85056 7.79994 6.03181 10.4687 4.90473C12.9739 3.8464 15.676 3.49015 17.9895 3.28077C18.7822 3.20994 19.5739 3.13182 20.3645 3.05473C22.0114 2.89432 23.7156 2.72765 25.3989 2.61723C27.1093 2.50681 28.8812 2.64536 30.5947 2.78077C31.3104 2.83702 32.0208 2.89327 32.7218 2.93181C35.6395 3.08806 38.9458 3.26619 41.7562 4.79223C44.5801 6.32452 46.6156 9.12556 47.201 12.2849C47.4833 13.811 47.5208 15.3547 47.5218 16.5297C47.5229 17.1381 47.5124 17.7464 47.502 18.3516C47.4916 18.9443 47.4822 19.5349 47.4822 20.1172C47.4822 21.4568 47.5176 22.8131 47.5531 24.1745C47.6301 27.1006 47.7093 30.1245 47.4281 33.0443C47.177 35.6391 46.6354 38.1985 45.8197 40.6516C45.6249 41.2349 45.4031 41.8474 45.0093 42.3808C44.5895 42.9516 44.0145 43.3693 43.5083 43.7391C42.2114 44.6797 40.8718 45.6537 39.3062 46.2151C38.2249 46.6047 37.0718 46.7756 36.077 46.9047C33.3229 47.2631 30.5343 47.4422 27.752 47.4422ZM26.7156 3.62036C26.2947 3.62036 25.877 3.63181 25.4666 3.6589C23.7989 3.76723 22.1041 3.9339 20.4645 4.09327C19.6708 4.17036 18.877 4.24744 18.0822 4.32036C15.8489 4.5214 13.2468 4.86306 10.8729 5.86619C8.43223 6.8964 6.54681 8.54015 5.56036 10.4964C4.48744 12.6266 4.41765 15.0891 4.43952 17.637C4.45827 19.7516 4.52077 21.8954 4.62807 24.0068C4.67182 24.8474 4.74265 25.6818 4.81452 26.5162C4.93848 27.9714 5.06661 29.4776 5.03848 30.986C4.99369 33.2797 5.02077 35.7297 5.51661 38.0933C5.64473 38.7068 5.8239 39.4141 6.18223 40.0079C6.48848 40.5131 6.93952 40.961 7.37598 41.3933L9.33848 43.337C9.81348 43.8068 10.3041 44.2922 10.8614 44.6276C11.6301 45.0901 12.5624 45.2891 13.4541 45.4349C14.9593 45.6818 16.5208 45.7401 18.0312 45.7964L19.0749 45.837C20.0395 45.8797 21.0114 45.9849 21.9531 46.0849C22.8531 46.1818 23.7843 46.2808 24.6937 46.3245C28.4426 46.5047 32.2249 46.3526 35.9447 45.8693C36.8854 45.7474 37.9718 45.587 38.9551 45.2329C40.3812 44.7224 41.6614 43.7933 42.8979 42.8954C43.3645 42.5558 43.8479 42.2037 44.1739 41.762C44.477 41.3495 44.6666 40.8245 44.8343 40.3204C45.626 37.9422 46.151 35.4599 46.3937 32.9433C46.6697 30.087 46.5906 27.0954 46.5156 24.2006C46.4791 22.8308 46.4437 21.4651 46.4437 20.1162C46.4437 19.5287 46.4531 18.9318 46.4635 18.3329C46.4739 17.7339 46.4833 17.1318 46.4833 16.5287C46.4822 15.3985 46.4479 13.9151 46.1812 12.4724C45.6604 9.66202 43.7749 7.06827 41.2635 5.70577C38.6583 4.29327 35.477 4.1214 32.6697 3.96931C31.9604 3.93181 31.2406 3.87452 30.5176 3.81723C29.2562 3.7214 27.9687 3.62036 26.7156 3.62036Z" fill="#010101"/>
<path d="M37.8384 11.8392C37.0478 11.1798 35.8186 11.0694 34.8655 11.6704C34.1457 12.1246 33.979 13.1871 34.3748 13.9413C35.0436 15.2131 37.3738 16.0663 38.3082 14.6465C38.6196 14.1725 38.6957 13.5642 38.5644 13.0131C38.4478 12.5246 38.1853 12.1288 37.8384 11.8392Z" fill="#D6E5E5"/>
<path d="M36.8677 15.9045C36.8208 15.9045 36.7739 15.9035 36.727 15.9003C35.5906 15.8451 34.4072 15.1232 33.9145 14.1837C33.3635 13.1378 33.6656 11.8139 34.5875 11.2305C35.7031 10.5253 37.177 10.6118 38.1708 11.4399C38.6218 11.816 38.9322 12.3191 39.0697 12.893C39.2406 13.6118 39.1218 14.3555 38.7427 14.9337C38.3291 15.5618 37.6677 15.9045 36.8677 15.9045ZM36.2427 11.7993C35.8604 11.7993 35.475 11.9024 35.1437 12.1107C34.6875 12.3993 34.5427 13.141 34.8364 13.6972C35.1593 14.3118 36.0125 14.8222 36.7781 14.8597C37.2541 14.8732 37.6385 14.7149 37.8729 14.3607C38.0927 14.0274 38.1614 13.568 38.0583 13.1337C37.9739 12.7795 37.7812 12.4701 37.5052 12.2389C37.1552 11.9482 36.701 11.7993 36.2427 11.7993Z" fill="#010101"/>
<path d="M25.9209 35.2407C24.1438 35.2407 22.2698 35.4605 20.7584 34.6418C19.8761 34.1626 19.2146 33.7084 18.7459 33.2855C18.5605 33.1199 17.9615 32.5876 17.823 32.5001C15.3105 30.924 14.6584 27.1459 14.7511 24.7626C14.8042 23.3022 15.2855 22.1209 15.6375 21.2595C16.1146 20.0793 16.7698 18.4574 18.1188 17.0803C19.6084 15.5636 21.6396 14.649 23.9969 14.4365C24.9188 14.3532 25.8782 14.3813 26.824 14.5178C28.9032 14.8178 30.8105 15.5803 32.3375 16.7209C34.2448 18.1449 35.5594 20.1386 36.0375 22.3334C36.8917 26.2668 35.3355 30.7011 32.2521 33.1167C30.5052 34.4876 28.2573 35.2407 25.9209 35.2407ZM25.3105 18.247C25.0615 18.247 24.6021 18.399 24.3552 18.4209C22.8177 18.5595 22.0542 18.5688 21.1438 19.497C20.2709 20.3876 19.8313 21.5532 19.4198 22.573C19.1355 23.2709 18.5677 24.1397 18.5365 24.998C18.4813 26.4178 19.2469 27.8949 20.5552 28.7168C20.8844 28.922 20.9761 29.4345 21.2875 29.7136C21.6792 30.0667 22.2782 30.1865 22.8 30.4709C25.1271 31.7313 27.7605 31.5563 29.7865 29.9699C31.8063 28.3865 32.6959 25.799 32.1292 23.1886C31.8271 21.8011 31.2855 20.572 30.0396 19.6418C28.9688 18.8418 27.7657 18.699 26.2511 18.4792C25.8219 18.4167 25.7323 18.247 25.3105 18.247Z" fill="#D6E5E5"/>
<path d="M25.9167 31.7632C24.7552 31.7632 23.5854 31.4882 22.551 30.9278C22.0354 30.6476 21.6239 30.2778 21.2271 29.9205C20.9114 29.6361 20.6135 29.3674 20.2781 29.157C18.9854 28.3465 18.1739 26.2997 18.2271 24.8965C18.2594 24.0497 18.5781 23.2643 18.8583 22.5715C19.2708 21.5528 19.7385 20.3986 20.6021 19.5163C21.5031 18.5976 22.7854 18.0393 24.3094 17.9018C24.9625 17.8434 25.6406 17.8632 26.326 17.9622C27.8312 18.1788 29.1906 18.7143 30.2552 19.5101C31.4917 20.4309 32.3375 21.6976 32.6375 23.0757C33.201 25.6674 32.1135 28.807 30.1073 30.3788C28.9385 31.2945 27.4344 31.7632 25.9167 31.7632ZM24.4021 18.9403C23.5135 19.0205 22.2625 19.3122 21.3458 20.2476C20.626 20.9809 20.2177 21.9882 19.8239 22.9622C19.5625 23.607 19.2927 24.2726 19.2677 24.9372C19.2271 26.0018 19.9 27.6934 20.8312 28.2757C21.2427 28.5351 21.5885 28.8465 21.9229 29.1476C22.2917 29.4788 22.6396 29.7924 23.0469 30.0132C25.0479 31.0965 27.7458 30.9038 29.4635 29.559C31.1771 28.2174 32.1031 25.5247 31.6187 23.2976C31.375 22.182 30.65 21.1059 29.6312 20.3445C28.7042 19.6528 27.5094 19.1851 26.176 18.9934C25.5719 18.907 24.975 18.8893 24.4021 18.9403Z" fill="#010101"/>
<path d="M25.3562 36.0585C23.5801 36.0585 21.8624 35.7095 20.3083 35.0168C17.376 33.7085 15.2208 31.3127 14.5458 28.6085C14.0291 26.5366 14.3801 24.4345 14.7426 22.8345C15.0364 21.5335 15.526 19.6408 16.3676 18.222C17.0926 16.9949 18.0749 15.9137 19.2083 15.0949C19.9437 14.5647 20.701 14.1689 21.4551 13.9199C21.4583 13.9189 21.552 13.8887 21.5603 13.8856C23.727 13.2085 26.1145 13.6293 28.0312 13.9689C30.5666 14.4179 33.2093 16.3877 34.7051 18.1418C35.1114 18.6189 35.3978 19.0345 35.6062 19.4533C36.0541 20.347 36.1853 21.3345 36.2593 22.2668C36.4707 24.9262 36.2426 27.1991 35.5614 29.2168C34.4895 32.3949 32.4458 34.5314 29.651 35.3949C28.2187 35.8377 26.7697 36.0574 25.3562 36.0585ZM21.7155 14.3835L21.7874 14.9074C21.127 15.1262 20.4655 15.4731 19.8166 15.9397C18.7989 16.6752 17.9166 17.6481 17.2635 18.7533C16.4978 20.0449 16.0374 21.8324 15.7583 23.0647C15.4208 24.5522 15.0926 26.4981 15.5572 28.3564C16.1551 30.7533 18.0905 32.8877 20.7333 34.0647C23.2916 35.2074 26.351 35.3241 29.3447 34.3991C32.4541 33.4377 33.9051 30.8679 34.5749 28.8824C35.2093 27.0012 35.4218 24.8647 35.2218 22.3502C35.1551 21.522 35.0426 20.6543 34.6749 19.9189C34.5051 19.5783 34.2624 19.2283 33.9124 18.8168C32.5833 17.2574 30.1176 15.396 27.851 14.9939C25.9499 14.6585 23.7947 14.2772 21.8728 14.8804L21.7155 14.3835Z" fill="#010101"/>
</svg>
