<svg width="7" height="14" viewBox="0 0 7 14" fill="none" xmlns="http://www.w3.org/2000/svg">
<g clip-path="url(#clip0_115_1161)">
<path fill-rule="evenodd" clip-rule="evenodd" d="M3.82146 5.36179C4.74626 4.03184 5.10297 2.13381 5.7239 0.5H5.51252C4.24863 1.20461 3.78183 2.26592 2.65886 3.56504C1.83976 4.51186 0.19714 5.42785 0.227967 6.10163C0.276409 7.09248 1.96747 7.15413 2.76455 7.79268C1.97187 9.57182 1.06909 11.2409 0.756422 13.5C1.11313 13.4383 1.36855 13.0949 1.60195 12.8659C3.37228 11.1043 4.95764 9.19749 6.25236 7.05285C5.8428 6.09282 4.60974 5.94749 3.82146 5.36179ZM2.2361 11.2805C2.37261 10.0783 3.29301 8.7439 3.3987 7.15854C2.79978 6.55962 1.72966 6.43191 0.967804 5.99593C2.45188 5.04912 3.47356 3.63991 4.5613 2.29675C4.27946 3.21274 3.62329 4.67039 2.97593 5.57317C3.53962 6.34824 4.7947 6.43191 5.51252 7.05285C4.5569 8.59858 3.42072 9.96375 2.2361 11.2805Z" fill="#768692"/>
</g>
<defs>
<clipPath id="clip0_115_1161">
<rect width="6.02439" height="13" fill="white" transform="translate(0.228027 0.5)"/>
</clipPath>
</defs>
</svg>
