<svg width="15" height="13" viewBox="0 0 15 13" fill="none" xmlns="http://www.w3.org/2000/svg">
<path d="M4.2647 6.62562C4.25103 7.23648 5.16653 6.8553 5.62656 6.96281C5.36239 7.16317 5.73132 8.0477 5.31228 8.08679C4.20093 7.81801 2.5339 8.15032 1.44076 7.862C1.60018 6.35195 1.53186 4.59268 1.54552 2.92136C1.54552 2.92136 1.58196 2.9067 1.60018 2.89693L1.65028 2.85783C1.73226 2.78942 1.78692 2.74055 1.84158 2.68679L1.8598 2.70634C2.00555 2.71123 2.08753 2.65259 2.17407 2.59394C2.33804 3.3563 1.75048 4.9201 2.69787 4.83702C2.79352 4.20661 3.06225 2.42779 2.48835 2.14435C2.31983 1.97331 1.63206 2.19322 1.54552 2.48154H1.55008C1.51819 2.51087 1.48175 2.54019 1.44076 2.57928L1.40888 2.60372C1.17203 2.66236 1.11738 2.80408 1.02173 3.04354C0.502487 4.33856 0.912413 7.14362 0.812209 8.54127C2.42914 8.69276 4.6564 8.73675 6.04104 8.76607C6.16402 8.05258 6.40998 6.94326 6.1458 6.1858C5.64023 6.04896 4.33302 5.94145 4.2647 6.63539V6.62562ZM13.7249 3.78634L13.6839 3.67394C13.5518 3.30743 13.4152 2.92625 13.1646 2.60372C13.1646 2.60372 13.1555 2.59883 13.151 2.59394L13.1601 2.58417C12.2036 -0.8904 7.66708 0.746703 5.5218 2.02218C4.19638 2.81385 2.94838 3.93783 3.01215 4.93964C3.791 4.80281 4.29202 3.87919 5.10277 3.25856C6.92921 1.85602 9.99 0.6734 12.322 2.02218C12.527 2.2763 12.6408 2.63304 12.8777 2.85295C12.8777 2.85295 12.8777 2.85295 12.8777 2.85783C13.0918 3.12661 13.2102 3.46381 13.3377 3.81566L13.3833 3.94761C13.3833 3.94761 13.406 3.97693 13.4152 3.99159C14.2305 6.5181 13.5017 9.87539 12.0032 11.1167C11.7253 11.3463 10.5502 12.2895 10.3316 11.0043C11.6707 9.56263 13.2557 8.38 12.946 5.16933C12.6773 4.74417 12.5406 4.18218 12.4222 3.59575C11.5659 2.77476 11.1879 1.95865 9.59829 2.13946C7.50767 2.37892 4.90236 4.1724 4.47421 5.84372C5.34417 5.68245 5.86796 4.53892 6.87911 3.93783C7.81739 3.38073 9.43432 2.56462 10.5411 2.92625C11.1742 3.1315 11.7299 3.95738 11.903 4.38743C12.5179 5.93657 12.0123 7.91086 11.0649 9.10326C10.4682 9.85095 9.53908 10.1197 9.28857 10.8967C9.6074 11.5711 9.71216 12.3091 10.3362 12.4654C11.2608 12.7049 12.4905 11.6444 13.0553 11.0043C14.5812 9.2743 14.859 5.70688 13.7249 3.78634Z" fill="#768692"/>
</svg>
