<svg width="20" height="21" viewBox="0 0 20 21" fill="none" xmlns="http://www.w3.org/2000/svg">
<path fill-rule="evenodd" clip-rule="evenodd" d="M15.2478 12.4439C15.3366 11.1855 15.5883 10.016 15.4477 8.88353C15.0776 6.01898 11.199 1.4594 8.91918 0.778421C8.216 0.571167 7.25375 0.519354 6.54317 0.578569C3.47137 2.70292 0.281139 5.59707 0.814078 10.2677C1.33961 14.9383 6.83924 17.5068 12.0798 15.8043C13.4418 16.4409 14.7223 20.3935 16.2323 20.549C17.0539 20.6304 17.6609 19.8384 18.4084 19.1648C19.0894 18.5504 20.1109 18.0027 19.9925 16.9886C17.8755 16.0116 16.595 14.1907 15.2478 12.4439ZM12.8718 12.244C10.9991 15.0937 4.79631 14.0353 3.18269 10.4675C2.13902 8.15074 3.43436 4.64223 5.75116 2.75473C9.70379 2.16998 15.3589 8.44681 12.8718 12.244ZM16.632 18.1803C15.9658 16.8332 13.3677 15.6563 14.2634 14.0279C15.6179 14.9087 16.4395 16.3299 17.424 17.5882C16.9281 17.5512 16.8022 17.8917 16.632 18.1803Z" fill="#768692"/>
</svg>
