<svg width="25" height="23" viewBox="0 0 32 29" fill="none" xmlns="http://www.w3.org/2000/svg">
<path d="M11.15 27.0965C11.71 29.0165 15.96 28.5065 15.03 24.9165C13.54 22.7165 10.62 25.2865 11.15 27.0965ZM22.55 24.1865C22.13 25.2765 22.13 27.3365 23.03 27.8265C28.4 28.2065 26.41 21.0465 22.55 24.1865ZM29.34 18.3665C30.67 14.6065 31.81 10.6565 32.01 5.75649C28.59 4.36649 25.44 5.71649 22.31 5.99649C17.45 6.42649 13.76 5.81649 8.98 6.23649C8.24 4.23649 7.52 2.20649 6.07 0.906494C3.62 1.38649 0.36 1.02649 0 3.58649C0.85 5.41649 3.13 3.89649 4.85 3.82649C6.22 8.35649 7.79 12.6865 9.21 17.1565C8.14 18.8565 8.36 21.9665 9.45 23.4565C13.53 23.4365 18.96 23.5465 23.51 23.2165C25.11 23.0965 27.26 23.1265 27.87 21.7565C26.75 20.7165 24.98 21.6565 23.51 21.7565C19.19 22.0665 14.02 21.6665 10.18 22.4865C9.98 21.2665 9.79 20.0165 10.18 18.8465C16.15 19.2265 23.6 19.0265 29.33 18.3565L29.34 18.3665ZM12.37 17.1565C12.23 16.0765 11.58 15.5165 11.64 14.2465C13.09 14.3265 13.06 15.8865 14.06 16.4265C14.68 16.3965 14.54 15.6165 14.54 14.9765C15.65 14.9965 15.55 16.2265 15.75 17.1565H12.36H12.37ZM16.73 16.9165C16.87 16.1265 16.57 15.7865 16.49 15.2165H17.94C18.21 15.5665 18.25 16.1465 18.62 16.3865C18.64 16.4965 18.64 16.5965 18.65 16.6865C18.44 17.1865 17.29 16.7565 16.73 16.9065V16.9165ZM18.43 12.0665C18.46 11.5365 19.46 11.9665 19.88 11.8265V13.5265C18.65 13.7865 18.87 12.5965 18.43 12.0765V12.0665ZM24.25 16.9165H21.83V15.4565H24.01C24.05 15.7465 23.97 16.1465 24.25 16.1865H24.27C24.25 16.2465 24.22 16.2865 24.23 16.3365L24.25 16.4865C24.26 16.6365 24.29 16.7765 24.32 16.9365L24.25 16.9165ZM26.19 16.9165C25.63 16.9465 25.1 16.9465 24.8 16.7165C24.79 16.6265 24.78 16.5365 24.77 16.4465V16.3865C24.95 16.1065 25.05 15.7565 24.98 15.2265H26.19V16.9265V16.9165ZM27.41 7.26649V7.21649C27.84 6.41649 29.2 7.23649 30.31 6.73649C30.63 9.25649 29.48 12.1165 28.85 14.2465C28.6 15.0765 28.68 16.2765 27.88 16.6665C27.01 16.3765 27.88 15.3465 27.88 14.4865C27.9 12.4465 27.38 9.55649 27.39 7.93649H27.34C27.38 7.71649 27.39 7.47649 27.4 7.25649L27.41 7.26649ZM26.68 6.97649H26.69C26.69 6.97649 26.67 7.04649 26.67 7.08649V7.24649C26.66 7.48649 26.65 7.71649 26.61 7.93649C26.07 9.47649 26.22 11.7065 26.2 13.7665C24.58 14.4165 24.41 12.3465 24.99 11.5865C24.2 10.5965 24.07 8.9465 23.78 7.46649C24.87 7.42649 25.85 7.27649 26.69 6.98649L26.68 6.97649ZM23.17 11.8365C23.17 11.8365 23.2 11.8365 23.22 11.8365H23.29C23.1 12.6765 23.65 12.7665 23.53 13.5365H21.59C21.59 12.9665 21.17 12.8265 21.35 12.0865C21.66 12.0765 21.69 11.7765 22.08 11.8465L22.06 11.7965C22.36 11.8465 22.66 11.8565 22.94 11.8565H23.15L23.17 11.8365ZM22.81 7.70649C22.64 9.08649 23.22 9.71649 23.05 11.0865H22.95C22.73 11.0865 22.52 11.0765 22.31 11.0465C22.28 10.6065 21.44 10.9765 21.1 10.8565C21.01 10.2265 20.98 9.52649 20.62 9.15649L20.6 9.02649C20.54 8.62649 20.49 8.21649 20.46 7.80649C20.46 7.76649 20.44 7.73649 20.43 7.70649H22.8H22.81ZM20.39 16.9165C19.97 16.9365 19.64 16.8565 19.42 16.6765C19.42 16.5065 19.4 16.3465 19.37 16.1765H19.42V15.4665C20.41 15.2865 20.25 16.2465 20.39 16.9265V16.9165ZM19.87 7.70649C19.87 7.70649 19.82 7.79649 19.82 7.84649C19.84 8.27649 19.9 8.69649 19.96 9.11649L20 9.42649L19.9 9.39649V10.8565C19.13 10.9765 19.04 10.4165 18.2 10.6165C17.9 9.69649 17.39 9.00649 17.47 7.70649H19.86H19.87ZM17 11.5865C17.22 12.0165 17.08 12.7965 17.48 13.0465C17.45 13.5765 16.45 13.1465 16.03 13.2865C15.81 12.8565 15.95 12.0765 15.54 11.8265C15.57 11.2965 16.57 11.7265 17 11.5865ZM14.58 7.70649H16.52C16.4 8.79649 16.64 9.52649 16.76 10.3765H15.3C15.17 9.96649 15.17 9.42649 14.85 9.19649C14.82 9.10649 14.78 9.01649 14.75 8.92649H14.82C14.77 8.74649 14.79 8.50649 14.63 8.45649C14.61 8.25649 14.6 7.98649 14.6 7.82649C14.6 7.79649 14.59 7.76649 14.58 7.73649V7.71649V7.70649ZM14.82 13.0365C13.45 13.2765 13.58 12.0165 13.37 11.0965C13.97 11.0565 14.12 11.4765 14.58 11.5765C14.41 12.3165 14.83 12.4565 14.82 13.0365ZM13.85 7.70649C13.85 7.70649 13.82 7.78649 13.83 7.83649C13.83 8.27649 13.87 8.59649 13.95 8.85649C13.95 8.87649 13.95 8.88649 13.94 8.90649H13.85C13.9 9.08649 13.87 9.33649 14.05 9.38649C14.06 9.42649 14.08 9.46649 14.09 9.50649V10.1265C12.17 10.4265 12.33 8.65649 11.91 7.45649C12.61 7.48649 13.5 7.32649 13.85 7.69649V7.70649ZM11.43 13.0365C10.72 12.6865 10.77 11.5965 10.46 10.8565H11.43C11.71 11.4565 12.32 12.6765 11.43 13.0365ZM9.98 9.88649C9.89 9.00649 9.66 8.26649 9.25 7.70649C9.28 7.17649 10.28 7.60649 10.71 7.46649C10.88 8.26649 11.1 9.01649 11.19 9.88649H9.98Z" fill="#768692"/>
</svg>
